<svg id="Layer_7" xmlns="http://www.w3.org/2000/svg" width="79.26" height="90.29" viewBox="0 0 79.26 90.29">
  <g id="Group_9" data-name="Group 9" transform="translate(0 0)">
    <path id="Path_304" data-name="Path 304" d="M41.61,39.45H57.48a1.77,1.77,0,0,0,0-3.54H41.61a1.77,1.77,0,0,0,0,3.54Z" transform="translate(-10.37 -4.85)"/>
    <path id="Path_305" data-name="Path 305" d="M27.59,34.36a1.773,1.773,0,0,0-.39,2.47l1.92,2.63a2.63,2.63,0,0,0,2.14,1.09h.11a2.636,2.636,0,0,0,2.15-1.27l3.21-5.26a1.768,1.768,0,1,0-3.02-1.84l-2.52,4.13-1.14-1.56a1.752,1.752,0,0,0-2.46-.39Z" transform="translate(-10.37 -4.85)"/>
    <path id="Path_306" data-name="Path 306" d="M41.61,51.93H57.48a1.77,1.77,0,0,0,0-3.54H41.61a1.77,1.77,0,0,0,0,3.54Z" transform="translate(-10.37 -4.85)"/>
    <path id="Path_307" data-name="Path 307" d="M36.14,44.06a1.771,1.771,0,0,0-2.43.59l-2.52,4.13-1.14-1.56a1.768,1.768,0,1,0-2.86,2.08l1.92,2.63a2.63,2.63,0,0,0,2.14,1.09h.11a2.636,2.636,0,0,0,2.15-1.27l3.21-5.26a1.768,1.768,0,0,0-.58-2.43Z" transform="translate(-10.37 -4.85)"/>
    <path id="Path_308" data-name="Path 308" d="M35.22,59.34a1.768,1.768,0,0,0-2.5,0l-.8.8-.8-.8a1.768,1.768,0,0,0-2.5,2.5l.8.8-.8.8a1.768,1.768,0,1,0,2.5,2.5l.8-.8.8.8a1.782,1.782,0,0,0,1.25.52,1.77,1.77,0,0,0,1.25-3.02l-.8-.8.8-.8a1.768,1.768,0,0,0,0-2.5Z" transform="translate(-10.37 -4.85)"/>
    <path id="Path_309" data-name="Path 309" d="M35.22,70.98a1.768,1.768,0,0,0-2.5,0l-.8.8-.8-.8a1.768,1.768,0,0,0-2.5,2.5l.8.8-.8.8a1.768,1.768,0,1,0,2.5,2.5l.8-.8.8.8a1.782,1.782,0,0,0,1.25.52,1.77,1.77,0,0,0,1.25-3.02l-.8-.8.8-.8a1.768,1.768,0,0,0,0-2.5Z" transform="translate(-10.37 -4.85)"/>
    <path id="Path_310" data-name="Path 310" d="M86,56.9H75.74V49.33a1.77,1.77,0,0,0-3.54,0V56.9H68.67V23a3.536,3.536,0,0,0-3.53-3.53H57.45V15.94H70.56a1.647,1.647,0,0,1,1.64,1.64V33.23a1.77,1.77,0,1,0,3.54,0V17.57a5.177,5.177,0,0,0-5.17-5.17H57.43a3.533,3.533,0,0,0-3.51-3.15H49.19a6.47,6.47,0,0,0-12.26,0H32.2a3.533,3.533,0,0,0-3.51,3.15H15.54a5.177,5.177,0,0,0-5.17,5.17v72.4a5.177,5.177,0,0,0,5.17,5.17H86a3.636,3.636,0,0,0,3.63-3.63v-31A3.626,3.626,0,0,0,86,56.9ZM67.51,60.43H73.5v6.1H67.51ZM32.19,12.78h6.17a1.762,1.762,0,0,0,1.76-1.65,2.937,2.937,0,0,1,5.86,0,1.762,1.762,0,0,0,1.76,1.65h6.17v9.64H32.19ZM53.92,25.96A3.537,3.537,0,0,0,57.4,23h7.74V56.9H55a3.636,3.636,0,0,0-3.63,3.63v.35H41.6a1.77,1.77,0,1,0,0,3.54h9.77v8.1H41.6a1.77,1.77,0,1,0,0,3.54h9.77v8.5H20.97V23h7.74a3.528,3.528,0,0,0,3.48,2.96ZM13.9,89.97V17.57a1.647,1.647,0,0,1,1.64-1.64H28.65v3.53H20.96a3.536,3.536,0,0,0-3.53,3.53V84.54a3.536,3.536,0,0,0,3.53,3.53h30.4V91.6H15.54A1.626,1.626,0,0,1,13.9,89.97Zm72.2,1.55a.09.09,0,0,1-.09.09H54.91V60.52a.09.09,0,0,1,.09-.09h8.97v6.85a2.717,2.717,0,0,0,2.64,2.79h7.78a2.724,2.724,0,0,0,2.64-2.79V60.43H86a.09.09,0,0,1,.09.09l.01,31Z" transform="translate(-10.37 -4.85)"/>
    <path id="Path_311" data-name="Path 311" d="M66.73,84.17H60.85a1.77,1.77,0,1,0,0,3.54h5.88a1.77,1.77,0,0,0,0-3.54Z" transform="translate(-10.37 -4.85)"/>
    <circle id="Ellipse_4" data-name="Ellipse 4" cx="1.77" cy="1.77" r="1.77" transform="translate(61.83 34.67)"/>
    <circle id="Ellipse_5" data-name="Ellipse 5" cx="1.77" cy="1.77" r="1.77" transform="translate(30.76 10.39)"/>
  </g>
</svg>
