<svg id="Layer_4" xmlns="http://www.w3.org/2000/svg" width="90.59" height="90.6" viewBox="0 0 90.59 90.6">
  <g id="Group_8" data-name="Group 8" transform="translate(0 0)">
    <g id="Group_7" data-name="Group 7">
      <path id="Path_302" data-name="Path 302" d="M94.15,33.11a1.777,1.777,0,0,0-1.73-.06L71.65,43.84a1.78,1.78,0,0,0-.91,1.98l.45,1.9L57.05,44.28a9.179,9.179,0,0,0-7.64,1.53l-.91.67a14.417,14.417,0,0,0-10.86-1.6l-9.3,2.3.32-1.36a1.767,1.767,0,0,0-.91-1.98L6.99,33.06a1.775,1.775,0,0,0-1.73.06,1.758,1.758,0,0,0-.85,1.51V66.44a1.78,1.78,0,0,0,1.24,1.69l14.66,4.64a1.586,1.586,0,0,0,.53.08,1.8,1.8,0,0,0,.87-.23,1.741,1.741,0,0,0,.85-1.13l.24-1.01,1.4.66a5.745,5.745,0,0,0,5.25,7.81,5.739,5.739,0,0,0,5.63,5.63,5.739,5.739,0,0,0,5.63,5.63,5.742,5.742,0,0,0,9.8,3.95l2.67-2.67a5.656,5.656,0,0,0,1.48-2.56,5.739,5.739,0,0,0,7.48-5.36,5.74,5.74,0,0,0,5.63-5.62,5.738,5.738,0,0,0,5.63-5.74v-.09l3.24-1.59.23.98a1.741,1.741,0,0,0,.85,1.13,1.8,1.8,0,0,0,.87.23,1.89,1.89,0,0,0,.53-.08l14.66-4.64A1.832,1.832,0,0,0,95,66.44V34.63a1.774,1.774,0,0,0-.85-1.52ZM7.95,65.14V37.54l16.96,8.81L19.56,68.82ZM28,71.65l2.67-2.67a2.2,2.2,0,0,1,3.12,0,2.2,2.2,0,0,1,0,3.12l-2.67,2.67A2.206,2.206,0,0,1,28,71.65Zm5.62,5.62,2.67-2.67a2.206,2.206,0,0,1,3.12,3.12l-2.67,2.67a2.206,2.206,0,0,1-3.12-3.12Zm5.63,5.63,2.67-2.67a2.206,2.206,0,1,1,3.12,3.12l-2.67,2.67a2.206,2.206,0,0,1-3.12-3.12Zm11.41,6.08-2.67,2.67a2.206,2.206,0,1,1-3.12-3.12l2.67-2.67a2.2,2.2,0,0,1,3.12,0,2.209,2.209,0,0,1,0,3.12ZM69.19,73.75a2.2,2.2,0,0,1-3.12,0h0L56.52,64.2a1.768,1.768,0,0,0-2.5,2.5l9.55,9.55a2.206,2.206,0,1,1-3.12,3.12L50.9,69.82a1.768,1.768,0,0,0-2.5,2.5l9.55,9.55a2.2,2.2,0,0,1,0,3.12,2.209,2.209,0,0,1-3.12,0s-7.17-7.16-7.28-7.28a5.728,5.728,0,0,0-3.95-1.68,5.74,5.74,0,0,0-5.62-5.63,5.746,5.746,0,0,0-9.81-3.95l-1.78,1.78-2.74-1.3,3.79-15.91,11.07-2.74a10.9,10.9,0,0,1,6.82.52l-3.17,2.33a6.291,6.291,0,0,0,6,10.93l9.44-3.64L69.22,70.61a2.262,2.262,0,0,1-.03,3.14Zm3.03-5.02c-.15-.2-12.9-13.58-12.9-13.58a1.778,1.778,0,0,0-1.92-.43h0L46.86,58.79a2.749,2.749,0,0,1-2.62-4.78l7.27-5.35a5.638,5.638,0,0,1,4.7-.94l15.83,3.85a.148.148,0,0,0,.07.01l3.67,15.4Zm19.24-3.59L79.85,68.82,74.5,46.35l16.96-8.81Z" transform="translate(-4.41 -5.24)"/>
      <path id="Path_303" data-name="Path 303" d="M18.35,34.62H33.7v.85a1.767,1.767,0,0,0,1.77,1.77h6.26a1.77,1.77,0,0,0,0-3.54H37.24v-.33A10.375,10.375,0,0,1,47.6,23.01h.33v2.42a1.77,1.77,0,0,0,3.54,0V23.01h.33A10.375,10.375,0,0,1,62.16,33.37v.33H57.67a1.77,1.77,0,0,0,0,3.54h6.26a1.767,1.767,0,0,0,1.77-1.77v-.85H81.05a1.767,1.767,0,0,0,1.77-1.77V30.94A12.8,12.8,0,0,0,73.9,18.76a7.106,7.106,0,0,0,1.37-4.2V12.38a7.14,7.14,0,1,0-14.28,0v2.18a7.106,7.106,0,0,0,1.37,4.2,12.479,12.479,0,0,0-4.19,2.27,13.641,13.641,0,0,0-2.41-.97,7.652,7.652,0,0,0,1.63-4.73v-2.4a7.69,7.69,0,1,0-15.38,0v2.4a7.674,7.674,0,0,0,1.63,4.73,14.112,14.112,0,0,0-2.41.97,12.658,12.658,0,0,0-4.19-2.27,7.106,7.106,0,0,0,1.37-4.2V12.38a7.14,7.14,0,1,0-14.28,0v2.18a7.106,7.106,0,0,0,1.37,4.2,12.807,12.807,0,0,0-8.92,12.18v1.91a1.773,1.773,0,0,0,1.77,1.77ZM64.53,12.38a3.6,3.6,0,1,1,7.2,0v2.18a3.6,3.6,0,1,1-7.2,0Zm1.7,9.32h.14v1.63a1.77,1.77,0,1,0,3.54,0V21.7h.14a9.25,9.25,0,0,1,9.24,9.24v.14H65.51a13.889,13.889,0,0,0-4.28-7.91,9.142,9.142,0,0,1,5-1.47ZM45.55,12.92a4.15,4.15,0,0,1,8.3,0v2.4a4.15,4.15,0,0,1-8.3,0Zm-17.88-.54a3.6,3.6,0,1,1,7.2,0v2.18a3.6,3.6,0,1,1-7.2,0V12.38ZM20.12,30.94a9.25,9.25,0,0,1,9.24-9.24h.14v1.63a1.77,1.77,0,1,0,3.54,0V21.7h.14a9.142,9.142,0,0,1,5,1.47,13.947,13.947,0,0,0-4.28,7.91H20.12Z" transform="translate(-4.41 -5.24)"/>
      <circle id="Ellipse_3" data-name="Ellipse 3" cx="1.77" cy="1.77" r="1.77" transform="translate(43.52 28.46)"/>
    </g>
  </g>
</svg>
