<svg id="Layer_3" xmlns="http://www.w3.org/2000/svg" width="90" height="90" viewBox="0 0 90 90">
  <g id="Group_10" data-name="Group 10" transform="translate(0 0)">
    <path id="Path_312" data-name="Path 312" d="M95,55.89V44.11a1.45,1.45,0,0,0-1.22-1.43l-7.2-1.15a37.338,37.338,0,0,0-4.72-11.4l4.28-5.91a1.458,1.458,0,0,0-.15-1.88l-8.32-8.32a1.457,1.457,0,0,0-1.88-.15l-5.91,4.28a36.99,36.99,0,0,0-11.4-4.72l-1.15-7.2A1.468,1.468,0,0,0,55.89,5H44.11a1.45,1.45,0,0,0-1.43,1.22l-1.15,7.2a37.338,37.338,0,0,0-11.4,4.72l-5.91-4.28a1.458,1.458,0,0,0-1.88.15l-8.32,8.32a1.457,1.457,0,0,0-.15,1.88l4.28,5.91a36.99,36.99,0,0,0-4.72,11.4l-7.2,1.15A1.468,1.468,0,0,0,5,44.11V55.88a1.45,1.45,0,0,0,1.22,1.43l7.2,1.15a37.338,37.338,0,0,0,4.72,11.4l-4.28,5.91a1.458,1.458,0,0,0,.15,1.88l8.32,8.32a1.457,1.457,0,0,0,1.88.15l5.91-4.28a36.99,36.99,0,0,0,11.4,4.72l1.15,7.2a1.45,1.45,0,0,0,1.43,1.22H55.87a1.45,1.45,0,0,0,1.43-1.22l1.03-6.46A20.605,20.605,0,1,0,87.32,58.35l6.46-1.03A1.45,1.45,0,0,0,95,55.89ZM75.93,53.84c-.51-.04-1.02-.06-1.54-.06a20.509,20.509,0,0,0-8.72,1.94v-2.3c0-3.43-2.6-6.04-7.13-7.16a37.284,37.284,0,0,0-4.73-.85,10.488,10.488,0,0,0,4.03-8.61c0-5-3.01-8.11-7.85-8.11s-7.85,3.11-7.85,8.11a10.475,10.475,0,0,0,4.02,8.6,34.632,34.632,0,0,0-4.72.86c-4.59,1.18-7.11,3.72-7.11,7.16V66.34a1.451,1.451,0,0,0,1.45,1.45H54.86a20.568,20.568,0,0,0-1.08,6.6c0,.52.02,1.03.06,1.54A26.189,26.189,0,1,1,75.93,53.84ZM57.76,54.95a1.451,1.451,0,0,0-1.45,1.45v8.13c-.07.12-.13.25-.2.37H43.69V56.4a1.45,1.45,0,1,0-2.9,0v8.49H37.23V53.43c0-2.55,2.68-3.77,4.93-4.35a31.769,31.769,0,0,1,15.68,0c1.84.46,4.92,1.63,4.92,4.35v3.96a20.951,20.951,0,0,0-3.56,3.09V56.4A1.436,1.436,0,0,0,57.76,54.95ZM50,43.76c-2.73,0-4.95-3.12-4.95-6.96,0-4.53,3.1-5.21,4.95-5.21s4.95.68,4.95,5.21C54.95,40.64,52.73,43.76,50,43.76ZM92.1,74.39a17.705,17.705,0,1,1-17.71-17.7A17.722,17.722,0,0,1,92.1,74.39Zm0-19.74-6.96,1.11a1.444,1.444,0,0,0-.9.53,20.382,20.382,0,0,0-5.43-2.03A29.1,29.1,0,1,0,54.26,78.8a20.382,20.382,0,0,0,2.03,5.43,1.444,1.444,0,0,0-.53.9l-1.11,6.96h-9.3l-1.11-6.96a1.447,1.447,0,0,0-1.15-1.19,34.3,34.3,0,0,1-12.21-5.06,1.462,1.462,0,0,0-1.65.03l-5.71,4.14-6.57-6.57,4.14-5.71a1.445,1.445,0,0,0,.03-1.65,34.221,34.221,0,0,1-5.06-12.21,1.472,1.472,0,0,0-1.19-1.15L7.9,54.65v-9.3l6.96-1.11a1.447,1.447,0,0,0,1.19-1.15,34.3,34.3,0,0,1,5.06-12.21,1.462,1.462,0,0,0-.03-1.65l-4.14-5.71,6.57-6.57,5.71,4.14a1.445,1.445,0,0,0,1.65.03,34.221,34.221,0,0,1,12.21-5.06,1.472,1.472,0,0,0,1.15-1.19l1.11-6.96h9.3l1.11,6.96a1.447,1.447,0,0,0,1.15,1.19,34.3,34.3,0,0,1,12.21,5.06,1.462,1.462,0,0,0,1.65-.03l5.71-4.14,6.57,6.57L78.9,29.23a1.445,1.445,0,0,0-.03,1.65,34.221,34.221,0,0,1,5.06,12.21,1.472,1.472,0,0,0,1.19,1.15l6.96,1.11v9.3ZM80.24,66.4l-8.67,8.8-3.01-3.01a4.271,4.271,0,0,0-6.04,6.04l6.05,6.05a4.273,4.273,0,0,0,6.04,0c3.08-3.08,9.38-9.53,11.69-11.86a4.268,4.268,0,0,0,1.24-3.02,4.2,4.2,0,0,0-1.26-3.01,4.267,4.267,0,0,0-6.04.01Zm3.98,3.96c-2.32,2.35-8.61,8.78-11.68,11.86a1.37,1.37,0,0,1-1.93,0l-6.05-6.05h0a1.372,1.372,0,0,1,1.94-1.94l4.05,4.05a1.461,1.461,0,0,0,1.03.43h.01a1.461,1.461,0,0,0,1.03-.43l9.7-9.84a1.367,1.367,0,0,1,1.92-.01,1.347,1.347,0,0,1,.4.96,1.46,1.46,0,0,1-.42.97Z" transform="translate(-5 -5)"/>
  </g>
</svg>
