<svg id="Layer_8" xmlns="http://www.w3.org/2000/svg" width="90" height="90.02" viewBox="0 0 90 90.02">
  <g id="Group_12" data-name="Group 12" transform="translate(0 0)">
    <path id="Path_314" data-name="Path 314" d="M74.68,77.58h2.9v2.9h-2.9Z" transform="translate(-5 -5)"/>
    <path id="Path_315" data-name="Path 315" d="M80.48,77.58h2.9v2.9h-2.9Z" transform="translate(-5 -5)"/>
    <path id="Path_316" data-name="Path 316" d="M92.1,34.03H74.68a2.837,2.837,0,0,0-1.78.63,32.955,32.955,0,0,0-7.32-6.62l.14-.34a3.631,3.631,0,0,0,.26-1.34v-.35a3.6,3.6,0,0,0-1.08-2.56l6.43-12.9a3.744,3.744,0,0,0,.45-1.79A3.786,3.786,0,0,0,68,5H64.15a3.784,3.784,0,0,0-2.9,1.36l-6.13,7.35H17.16a4.906,4.906,0,0,0-4.25,2.46L11,19.52h-.19v.34L8.55,23.81a4.9,4.9,0,0,0,4.25,7.32H24.63A33.142,33.142,0,0,0,13.76,54.36H7.9A2.9,2.9,0,0,0,5,57.26V71.78a2.9,2.9,0,0,0,2.9,2.9H19.57A33.529,33.529,0,0,0,44.59,89.09a16.042,16.042,0,0,0,1.8,1.06l-.84,1.12a2.084,2.084,0,0,1-1.66.83h-.42a2.05,2.05,0,0,1-1.85-1.15L41.14,90l-2.6,1.3.48.96a4.94,4.94,0,0,0,4.45,2.75h.42a4.978,4.978,0,0,0,3.98-1.99l1.2-1.6a5.536,5.536,0,0,1,4.42-2.21h.91a5.506,5.506,0,0,1,4.95,3.06,4.975,4.975,0,0,0,8.9,0,5.6,5.6,0,0,1,9.98,0,4.975,4.975,0,0,0,8.9,0l.48-.96-2.6-1.3-.48.96a2.063,2.063,0,0,1-3.7,0,8.726,8.726,0,0,0-.61-1.03,17.348,17.348,0,0,0,9-15.24,2.9,2.9,0,0,0-2.9-2.9V68.9a2.9,2.9,0,0,0-2.9-2.9V63.1a2.9,2.9,0,0,0-2.9-2.9H80.2c.12-.96.21-1.93.25-2.9H92.1A2.9,2.9,0,0,0,95,54.4V36.94A2.9,2.9,0,0,0,92.1,34.03ZM80.48,36.94h5.81v2.9H80.48Zm-8.71,1v1.9H59.95a39.415,39.415,0,0,0-5.02-8.71h.74c.1,0,.2-.02.3-.03l.85,2.12a3.6,3.6,0,0,0,6.68,0l.97-2.42a30.183,30.183,0,0,1,7.3,7.14ZM60.16,55.15c0,.5-.04,1-.06,1.51a2.907,2.907,0,0,0-2.84-2.3H51.45v-2.9h-2.9v2.9a2.9,2.9,0,0,0-2.9,2.9v2.9h-2.9a2.9,2.9,0,0,0-2.9,2.9v2.9H35.68a36.375,36.375,0,0,1,.55-23.23H58a37.13,37.13,0,0,1,2.16,12.42ZM74.68,68.87v2.9h-2.9v-2.9Zm-5.81,2.9h-2.9v-2.9h2.9Zm-30.62.48a35.417,35.417,0,0,1-1.54-3.38h3.13v2.9A2.891,2.891,0,0,0,38.25,72.25Zm4.49-3.38h20.3v2.9H42.74Zm20.32-2.9H42.76v-2.9H63.08v2.9Zm-5.8-8.71v2.9H48.55v-2.9ZM35.99,39.55,28.37,29.39a.777.777,0,0,1-.15-.44.734.734,0,0,1,.73-.73h8.92a.718.718,0,0,1,.72.65l1.02,10.16a.722.722,0,0,1-.72.8H36.58a.7.7,0,0,1-.59-.28Zm6.43.29a3.982,3.982,0,0,0,.08-1.09l-.76-7.62h9.52l.37.44a36.723,36.723,0,0,1,5.19,8.27H42.42ZM62.37,25.32a.691.691,0,0,1,.69.69v.35a.751.751,0,0,1-.05.26L60.8,32.15a.722.722,0,0,1-1.29,0L57.3,26.62a.742.742,0,0,1-.05-.25v-.35a.691.691,0,0,1,.69-.69h4.43Zm-51.56.92a2,2,0,0,1,.26-.99l1.62-2.83h6.83v-2.9H14.35l1.09-1.9a1.991,1.991,0,0,1,1.73-1H55.04l2.47,3.71,2.42-1.61-2.3-3.45L63.5,8.23a.869.869,0,0,1,.67-.31H68a.871.871,0,0,1,.87.87.921.921,0,0,1-.12.45l-6.59,13.2H57.95a3.6,3.6,0,0,0-3.6,3.6v.35a3.54,3.54,0,0,0,.26,1.33l.21.53H41.41a3.594,3.594,0,0,0-3.54-2.9H28.95a3.646,3.646,0,0,0-3.56,2.9H12.8a2.026,2.026,0,0,1-1.99-2.01ZM27.22,32.7l5.36,7.14H21.12A30.459,30.459,0,0,1,27.22,32.7ZM19.54,42.74H33.12a39.729,39.729,0,0,0-.49,23.23H25.32V57.26a2.9,2.9,0,0,0-2.9-2.9H16.65a30.659,30.659,0,0,1,2.89-11.62ZM13.71,57.26h2.9v2.9h-2.9v-2.9Zm-5.81,0h2.9v2.9a2.9,2.9,0,0,0,2.9,2.9h2.9a2.9,2.9,0,0,0,2.9-2.9v-2.9h2.9V71.78H7.9ZM23.1,74.59a2.9,2.9,0,0,0,2.22-2.81v-2.9h8.25a40.236,40.236,0,0,0,3.41,7.02,17.455,17.455,0,0,0,3.84,9.74A30.821,30.821,0,0,1,23.1,74.59ZM78.02,87.78a8.578,8.578,0,0,0-4.84-1.49,8.388,8.388,0,0,0-7.54,4.66,2.063,2.063,0,0,1-3.7,0,8.381,8.381,0,0,0-7.54-4.66h-.91a8.52,8.52,0,0,0-5,1.66,14.576,14.576,0,0,1-7.42-7.47h30.7v-2.9H40.14a14.714,14.714,0,0,1-.31-2.9H86.28A14.443,14.443,0,0,1,78.02,87.78Zm-.44-16.01v-2.9h5.81v2.9Zm2.9-5.8H71.77v-2.9h8.71Zm-3.24-5.81H71.77a2.9,2.9,0,0,0-2.9,2.9v2.9h-2.9v-2.9a2.9,2.9,0,0,0-2.9-2.9h-.35a40.04,40.04,0,0,0,.35-5.01,39.739,39.739,0,0,0-2.03-12.41H71.78V54.35a2.9,2.9,0,0,0,2.9,2.9h2.84c-.05.98-.14,1.95-.28,2.91Zm-2.56-5.81V36.94h2.9v2.9a2.9,2.9,0,0,0,2.9,2.9h5.81a2.9,2.9,0,0,0,2.9-2.9v-2.9h2.9V54.36H74.68Z" transform="translate(-5 -5)"/>
    <path id="Path_317" data-name="Path 317" d="M10.81,83.39h2.9v2.9h-2.9v-2.9Z" transform="translate(-5 -5)"/>
    <path id="Path_318" data-name="Path 318" d="M10.81,77.58h2.9v2.9h-2.9v-2.9Z" transform="translate(-5 -5)"/>
    <path id="Path_319" data-name="Path 319" d="M10.81,89.19h2.9v2.9h-2.9v-2.9Z" transform="translate(-5 -5)"/>
    <path id="Path_320" data-name="Path 320" d="M16.61,89.19h2.9v2.9h-2.9Z" transform="translate(-5 -5)"/>
    <path id="Path_321" data-name="Path 321" d="M22.42,89.19h2.9v2.9h-2.9Z" transform="translate(-5 -5)"/>
    <path id="Path_322" data-name="Path 322" d="M86.29,22.42h2.9v2.9h-2.9Z" transform="translate(-5 -5)"/>
    <path id="Path_323" data-name="Path 323" d="M86.29,28.23h2.9v2.9h-2.9Z" transform="translate(-5 -5)"/>
    <path id="Path_324" data-name="Path 324" d="M86.29,16.61h2.9v2.9h-2.9Z" transform="translate(-5 -5)"/>
    <path id="Path_325" data-name="Path 325" d="M80.48,16.61h2.9v2.9h-2.9Z" transform="translate(-5 -5)"/>
    <path id="Path_326" data-name="Path 326" d="M74.68,16.61h2.9v2.9h-2.9Z" transform="translate(-5 -5)"/>
    <path id="Path_327" data-name="Path 327" d="M28.23,19.52h2.9v2.9h-2.9Z" transform="translate(-5 -5)"/>
    <path id="Path_328" data-name="Path 328" d="M34.03,19.52h2.9v2.9h-2.9Z" transform="translate(-5 -5)"/>
    <path id="Path_329" data-name="Path 329" d="M39.84,19.52h2.9v2.9h-2.9Z" transform="translate(-5 -5)"/>
    <path id="Path_330" data-name="Path 330" d="M45.65,19.52h2.9v2.9h-2.9Z" transform="translate(-5 -5)"/>
  </g>
</svg>
