<svg id="Layer_1" xmlns="http://www.w3.org/2000/svg" width="90.007" height="90.111" viewBox="0 0 90.007 90.111">
  <g id="Group_11" data-name="Group 11" transform="translate(0 0)">
    <path id="Path_313" data-name="Path 313" d="M48.25,94.85c-6.9,0-6.91,0-8.7-6.21-.42-1.46-.78-2.94-1.24-4.38a2.561,2.561,0,0,0-3.91-1.57c-2.54,1.37-5.09,2.73-7.55,4.23a2.459,2.459,0,0,1-3.57-.42c-3.21-3.34-6.5-6.61-9.83-9.84a2.228,2.228,0,0,1-.47-3.18c1.51-2.55,2.93-5.15,4.35-7.75a2.548,2.548,0,0,0-1.66-4.02c-2.77-.79-5.55-1.59-8.35-2.25a2.38,2.38,0,0,1-2.13-2.7c.05-4.64.07-9.27-.01-13.91A2.372,2.372,0,0,1,7.3,40.16c2.8-.68,5.57-1.47,8.35-2.26a2.534,2.534,0,0,0,1.68-3.99c-1.38-2.53-2.75-5.07-4.23-7.55a2.366,2.366,0,0,1,.36-3.4q5.085-4.9,9.99-10a2.193,2.193,0,0,1,3.18-.36c2.34,1.4,4.76,2.68,7.16,4,2.54,1.41,3.91.86,4.7-1.87.76-2.62,1.52-5.25,2.25-7.88.31-1.11.76-1.95,2.1-2,9.82-.34,19.39.35,28.33,5.13A45.2,45.2,0,0,1,94.49,57.87c-3.29,18.74-19,33.82-38.06,36.48A43.679,43.679,0,0,1,48.25,94.85ZM49,19.64V10.75c0-3.42-.01-3.31-3.31-3.45-1.71-.07-2.4.53-2.73,2.12-.4,1.93-1.19,3.78-1.53,5.71a5.332,5.332,0,0,1-4.11,4.76,3.987,3.987,0,0,1-3.57-.29c-2.22-1.31-4.55-2.45-6.73-3.83-1.23-.78-1.95-.52-2.87.45q-3.45,3.63-7.09,7.09a1.969,1.969,0,0,0-.44,2.91c1.44,2.32,2.74,4.73,4.02,7.14,1.12,2.11-.54,6.01-2.81,6.68-2.62.77-5.24,1.53-7.9,2.18-1.22.3-1.76.79-1.73,2.14.1,3.49.1,6.99,0,10.48A1.856,1.856,0,0,0,9.9,57c2.64.67,5.27,1.42,7.89,2.2,2.33.69,3.94,4.67,2.77,6.81-1.28,2.33-2.55,4.66-3.92,6.94-.69,1.15-.73,1.93.34,2.92,2.5,2.33,4.91,4.76,7.25,7.25a1.84,1.84,0,0,0,2.73.33c2.13-1.31,4.39-2.42,6.51-3.75a4.167,4.167,0,0,1,3.84-.3,5.049,5.049,0,0,1,3.89,4.41,44.2,44.2,0,0,0,1.27,4.6c.97,3.47.97,3.38,4.46,3.45,1.63.03,2.03-.5,2.01-2.07-.08-6.84-.06-13.68-.01-20.51.01-1.27-.27-1.84-1.63-2.13a17.818,17.818,0,0,1,.15-35.12c1.31-.25,1.58-.74,1.56-1.9C48.97,26.64,49,23.14,49,19.64Zm-.08,29.98c0-4.33-.07-8.66.04-12.99.04-1.59-.54-1.72-1.86-1.48-6.53,1.19-11.82,7.67-11.82,14.6s5.3,13.44,11.81,14.61c1.33.24,1.9.05,1.87-1.51C48.85,58.44,48.92,54.03,48.92,49.62ZM79.87,68c2.28,0,4.56-.02,6.84.01.88.01,1.56-.06,2-1.05a40.535,40.535,0,0,0,3.62-14.27c.07-1.19-.29-1.59-1.5-1.57q-7.86.075-15.73,0c-1.12-.01-1.61.25-1.66,1.48a78.485,78.485,0,0,1-1.75,14c-.26,1.14-.04,1.46,1.13,1.42C75.15,67.95,77.51,68,79.87,68ZM61.18,48.37c2.65,0,5.31-.03,7.96.01.99.01,1.55-.15,1.49-1.36a92.753,92.753,0,0,0-1.75-14.2,1.437,1.437,0,0,0-1.69-1.33c-4.7.06-9.41.05-14.11.01-1.11-.01-1.42.39-1.41,1.45.04,4.63.05,9.25,0,13.88-.01,1.17.33,1.6,1.54,1.57C55.86,48.32,58.52,48.37,61.18,48.37Zm.03,2.77c-2.58,0-5.16.07-7.74-.03-1.37-.05-1.84.33-1.82,1.77.09,4.47.1,8.95,0,13.43-.03,1.49.54,1.74,1.85,1.72,4.47-.07,8.95-.1,13.43.02,1.42.04,1.81-.59,2.04-1.76a99.183,99.183,0,0,0,1.65-13.53c.08-1.4-.46-1.66-1.68-1.63C66.37,51.19,63.79,51.14,61.21,51.14Zm21.56-2.77c2.65,0,5.31-.06,7.96.03,1.35.05,1.68-.45,1.57-1.72a45.732,45.732,0,0,0-3.45-14.05,1.585,1.585,0,0,0-1.7-1.13q-7.05.06-14.1,0c-1.08-.01-1.55.23-1.27,1.4a78.133,78.133,0,0,1,1.65,13.97c.06,1.18.44,1.56,1.61,1.53C77.62,48.32,80.19,48.37,82.77,48.37ZM51.69,18.15c0,3.03.03,6.06-.02,9.1-.01,1.02.23,1.51,1.38,1.5,4.47-.05,8.94-.04,13.42-.01,1.08.01,1.31-.37.99-1.36-1.83-5.67-4.18-11.06-8.39-15.42a14.468,14.468,0,0,0-5.84-3.81c-1.23-.41-1.59-.17-1.56,1.13C51.74,12.24,51.69,15.19,51.69,18.15Zm0,62.85c0,3.11.04,6.22-.02,9.33-.02,1.17.29,1.43,1.43,1.07a15.2,15.2,0,0,0,6.82-4.73c3.67-4.19,5.81-9.17,7.5-14.4.46-1.41-.17-1.5-1.28-1.49-4.25.03-8.49.07-12.74-.02-1.45-.03-1.79.5-1.75,1.84C51.75,75.39,51.69,78.19,51.69,81Zm9.15,9.24c11.18-2.89,19.67-9.33,25.99-19.46-5.3,0-10.07.03-14.84-.02-1.29-.02-1.4.83-1.67,1.71C68.25,78.94,65.57,85.08,60.84,90.24Zm.01-80.97c4.79,5.2,7.5,11.4,9.52,17.97.22.72.31,1.49,1.37,1.49,4.82-.02,9.63-.01,14.91-.01C80.46,18.49,71.97,12.15,60.85,9.27Z" transform="translate(-5.18 -4.776)"/>
  </g>
</svg>
