<svg id="Layer_5" xmlns="http://www.w3.org/2000/svg" width="91.53" height="90.496" viewBox="0 0 91.53 90.496">
  <g id="Group_51" data-name="Group 51" transform="translate(0 0)">
    <g id="Group_14" data-name="Group 14">
      <g id="Group_13" data-name="Group 13">
        <path id="Path_331" data-name="Path 331" d="M95,4.72H6.53A1.53,1.53,0,0,0,5,6.25V76.42a1.53,1.53,0,0,0,1.53,1.53H95a1.53,1.53,0,0,0,1.53-1.53V6.25A1.53,1.53,0,0,0,95,4.72ZM93.48,74.9H8.05V7.78H93.48V74.9Z" transform="translate(-5 -4.72)"/>
      </g>
    </g>
    <g id="Group_16" data-name="Group 16" transform="translate(19.896 71.23)">
      <g id="Group_15" data-name="Group 15">
        <rect id="Rectangle_9" data-name="Rectangle 9" width="19.29" height="3.05" transform="translate(0 18.298) rotate(-71.554)"/>
      </g>
    </g>
    <g id="Group_18" data-name="Group 18" transform="translate(62.627 71.222)">
      <g id="Group_17" data-name="Group 17">
        <rect id="Rectangle_10" data-name="Rectangle 10" width="3.05" height="19.3" transform="matrix(0.949, -0.316, 0.316, 0.949, 0, 0.964)"/>
      </g>
    </g>
    <g id="Group_20" data-name="Group 20" transform="translate(9.15 57.97)">
      <g id="Group_19" data-name="Group 19">
        <path id="Path_332" data-name="Path 332" d="M18.73,62.69a4.58,4.58,0,1,0,4.58,4.58A4.586,4.586,0,0,0,18.73,62.69Zm0,6.1a1.53,1.53,0,1,1,1.53-1.53A1.53,1.53,0,0,1,18.73,68.79Z" transform="translate(-14.15 -62.69)"/>
      </g>
    </g>
    <g id="Group_22" data-name="Group 22" transform="translate(21.35 57.97)">
      <g id="Group_21" data-name="Group 21">
        <path id="Path_333" data-name="Path 333" d="M30.93,62.69a4.58,4.58,0,1,0,4.58,4.58A4.586,4.586,0,0,0,30.93,62.69Zm0,6.1a1.53,1.53,0,1,1,1.53-1.53A1.53,1.53,0,0,1,30.93,68.79Z" transform="translate(-26.35 -62.69)"/>
      </g>
    </g>
    <g id="Group_24" data-name="Group 24" transform="translate(6.1 48.82)">
      <g id="Group_23" data-name="Group 23">
        <path id="Path_334" data-name="Path 334" d="M39.64,60.09l-6.1-6.1a1.513,1.513,0,0,0-1.08-.45H12.63a1.53,1.53,0,0,0-1.53,1.53v12.2a1.53,1.53,0,0,0,1.53,1.53h3.05V65.75H14.15V56.6H31.82l5.21,5.21v3.94H33.98V68.8h4.58a1.53,1.53,0,0,0,1.53-1.53v-6.1A1.5,1.5,0,0,0,39.64,60.09Z" transform="translate(-11.1 -53.54)"/>
      </g>
    </g>
    <g id="Group_26" data-name="Group 26" transform="translate(16.78 61.02)">
      <g id="Group_25" data-name="Group 25">
        <rect id="Rectangle_11" data-name="Rectangle 11" width="6.1" height="3.05"/>
      </g>
    </g>
    <g id="Group_28" data-name="Group 28" transform="translate(6.1 12.21)">
      <g id="Group_27" data-name="Group 27">
        <path id="Path_335" data-name="Path 335" d="M24.83,16.93H12.63a1.53,1.53,0,0,0-1.53,1.53V36.77a1.53,1.53,0,0,0,1.53,1.53h12.2a1.53,1.53,0,0,0,1.53-1.53V18.45A1.528,1.528,0,0,0,24.83,16.93Zm-1.52,18.3H14.16V19.98h9.15Z" transform="translate(-11.1 -16.93)"/>
      </g>
    </g>
    <g id="Group_30" data-name="Group 30" transform="translate(12.2 18.31)">
      <g id="Group_29" data-name="Group 29">
        <rect id="Rectangle_12" data-name="Rectangle 12" width="3.05" height="3.05"/>
      </g>
    </g>
    <g id="Group_32" data-name="Group 32" transform="translate(12.2 24.41)">
      <g id="Group_31" data-name="Group 31">
        <rect id="Rectangle_13" data-name="Rectangle 13" width="3.05" height="3.05"/>
      </g>
    </g>
    <g id="Group_34" data-name="Group 34" transform="translate(74.74 12.21)">
      <g id="Group_33" data-name="Group 33">
        <path id="Path_336" data-name="Path 336" d="M88.45,20.43,85.4,17.38a1.521,1.521,0,0,0-2.16,0l-3.05,3.05a1.513,1.513,0,0,0-.45,1.08v4.58a1.53,1.53,0,0,0,1.53,1.53h6.1a1.53,1.53,0,0,0,1.53-1.53V21.5A1.49,1.49,0,0,0,88.45,20.43Zm-2.6,4.13H82.8V22.14l1.53-1.53,1.53,1.53-.01,2.42Z" transform="translate(-79.74 -16.93)"/>
      </g>
    </g>
    <g id="Group_36" data-name="Group 36" transform="translate(62.54 12.21)">
      <g id="Group_35" data-name="Group 35">
        <path id="Path_337" data-name="Path 337" d="M76.25,20.43,73.2,17.38a1.521,1.521,0,0,0-2.16,0l-3.05,3.05a1.513,1.513,0,0,0-.45,1.08v4.58a1.53,1.53,0,0,0,1.53,1.53h6.1a1.53,1.53,0,0,0,1.53-1.53V21.5A1.49,1.49,0,0,0,76.25,20.43Zm-2.6,4.13H70.6V22.14l1.53-1.53,1.53,1.53-.01,2.42Z" transform="translate(-67.54 -16.93)"/>
      </g>
    </g>
    <g id="Group_38" data-name="Group 38" transform="translate(30.51 25.93)">
      <g id="Group_37" data-name="Group 37">
        <path id="Path_338" data-name="Path 338" d="M84.32,32.18V55.06H72.12V32.18a1.53,1.53,0,0,0-1.53-1.53H37.04a1.53,1.53,0,0,0-1.53,1.53V52.01a1.53,1.53,0,0,0,1.53,1.53h12.2v12.2h-6.1v3.05h7.63a1.53,1.53,0,0,0,1.53-1.53V52.01a1.53,1.53,0,0,0-1.53-1.53H38.57V33.71H69.08V56.59a1.53,1.53,0,0,0,1.53,1.53H85.86a1.53,1.53,0,0,0,1.53-1.53V32.18Z" transform="translate(-35.51 -30.65)"/>
      </g>
    </g>
    <g id="Group_40" data-name="Group 40" transform="translate(36.61 32.04)">
      <g id="Group_39" data-name="Group 39">
        <path id="Path_339" data-name="Path 339" d="M50.32,40.26l-3.05-3.05a1.521,1.521,0,0,0-2.16,0l-3.05,3.05a1.513,1.513,0,0,0-.45,1.08v4.58a1.53,1.53,0,0,0,1.53,1.53h6.1a1.53,1.53,0,0,0,1.53-1.53V41.34A1.581,1.581,0,0,0,50.32,40.26Zm-2.61,4.13H44.66V41.97l1.53-1.53,1.53,1.53-.01,2.42Z" transform="translate(-41.61 -36.76)"/>
      </g>
    </g>
    <g id="Group_42" data-name="Group 42" transform="translate(30.51 12.21)">
      <g id="Group_41" data-name="Group 41">
        <path id="Path_340" data-name="Path 340" d="M44.22,20.43l-3.05-3.05a1.521,1.521,0,0,0-2.16,0l-3.05,3.05a1.513,1.513,0,0,0-.45,1.08v4.58a1.53,1.53,0,0,0,1.53,1.53h6.1a1.53,1.53,0,0,0,1.53-1.53V21.5A1.576,1.576,0,0,0,44.22,20.43Zm-2.61,4.13H38.56V22.14l1.53-1.53,1.53,1.53-.01,2.42Z" transform="translate(-35.51 -16.93)"/>
      </g>
    </g>
    <g id="Group_44" data-name="Group 44" transform="translate(50.34 56.44)">
      <g id="Group_43" data-name="Group 43">
        <path id="Path_341" data-name="Path 341" d="M64.05,64.67,61,61.61a1.521,1.521,0,0,0-2.16,0l-3.05,3.05a1.513,1.513,0,0,0-.45,1.08v4.58a1.53,1.53,0,0,0,1.53,1.53h6.1a1.53,1.53,0,0,0,1.53-1.53V65.74A1.576,1.576,0,0,0,64.05,64.67Zm-2.61,4.12H58.39V66.37l1.53-1.53,1.53,1.53-.01,2.42Z" transform="translate(-55.34 -61.16)"/>
      </g>
    </g>
    <g id="Group_46" data-name="Group 46" transform="translate(51.859 30.52)">
      <g id="Group_45" data-name="Group 45">
        <path id="Path_342" data-name="Path 342" d="M65.94,45.43l-3.05-9.15a1.531,1.531,0,0,0-2.9,0l-3.05,9.15a1.487,1.487,0,0,0,.21,1.37,1.526,1.526,0,0,0,1.24.63h6.1a1.526,1.526,0,0,0,1.24-.63A1.491,1.491,0,0,0,65.94,45.43Zm-5.43-1.04.93-2.8.94,2.8Z" transform="translate(-56.859 -35.24)"/>
      </g>
    </g>
    <g id="Group_48" data-name="Group 48" transform="translate(54.92 41.19)">
      <g id="Group_47" data-name="Group 47">
        <rect id="Rectangle_14" data-name="Rectangle 14" width="3.05" height="4.58"/>
      </g>
    </g>
    <g id="Group_50" data-name="Group 50" transform="translate(1.53 6.11)">
      <g id="Group_49" data-name="Group 49">
        <rect id="Rectangle_15" data-name="Rectangle 15" width="88.48" height="3.05"/>
      </g>
    </g>
  </g>
</svg>
