<svg id="Layer_2" xmlns="http://www.w3.org/2000/svg" width="87.99" height="88.01" viewBox="0 0 87.99 88.01">
  <g id="Group_52" data-name="Group 52" transform="translate(0 0)">
    <path id="Path_343" data-name="Path 343" d="M6,16.56a2.779,2.779,0,0,1,1.98-.65c2.28.02,4.56,0,6.84.01.93,0,2.05-.01,2.06,1.23.02,1.35-1.14,1.36-2.15,1.36-1.43,0-2.87.08-4.3-.03-1.36-.11-1.79.35-1.76,1.73.08,4.3.03,8.6.03,12.9,0,6.12.03,12.25-.03,18.37-.01,1.31.28,1.8,1.7,1.79q25.005-.06,50.02.01c1.41,0,1.74-.51,1.74-1.81q-.06-15.72.01-31.45c.01-1.24-.43-1.58-1.59-1.52-1.56.08-3.13.02-4.69,0-.93-.01-1.98-.02-1.95-1.33.02-1.15.98-1.24,1.86-1.25,2.34-.02,4.69.02,7.03-.02,1.41-.02,1.96.55,1.93,1.99-.07,3.91.09,7.82-.07,11.72-.08,1.89.6,2.26,2.31,2.21,3.51-.12,7.03,0,10.55-.05a7.217,7.217,0,0,1,6.76,3.81c3.21,5.41,6.47,10.79,9.71,16.18V81.88a2.445,2.445,0,0,1-2.08.8c-1.75-.05-3.51.03-5.26-.04-1.15-.05-1.73.16-1.77,1.55a10.608,10.608,0,0,1-1.75,5.3c-1.5,2.41-3.97,3.38-6.34,4.52H72.88c-5.04-1.62-8.28-4.74-8.62-10.29-.08-1.24-1.07-.93-1.77-.93-6.45-.02-12.89.02-19.34-.04-1.24-.01-1.5.43-1.55,1.56a9.883,9.883,0,0,1-3.3,7.06,17.333,17.333,0,0,1-4.92,2.64H29.47c-4.93-1.7-8.02-4.86-8.16-10.35-.03-1.17-.94-.87-1.58-.88-3.7-.03-7.41-.02-11.11,0a4.457,4.457,0,0,1-2.61-.51Q6,49.4,6,16.56ZM50.09,68.58c-13.16,0-26.32.03-39.48-.04-1.55-.01-2,.41-1.93,1.94a64.573,64.573,0,0,1-.02,7.62c-.12,1.82.57,2.18,2.21,2.11,3.06-.12,6.13-.12,9.18-.02a2.511,2.511,0,0,0,2.58-1.53,10.247,10.247,0,0,1,17.73.09,2.378,2.378,0,0,0,2.44,1.42c6.71-.04,13.42-.05,20.13.02a2.837,2.837,0,0,0,2.93-1.57c3.7-6.23,12.77-6.94,16.79-1.05,1.64,2.4,3.31,2.81,5.71,2.59a5.718,5.718,0,0,1,1.17,0c1.33.19,1.83-.29,1.78-1.7-.1-2.67-.12-5.35.02-8.01.08-1.57-.44-1.93-1.95-1.92C76.28,68.6,63.19,68.58,50.09,68.58ZM64.72,50.1h0c.01,4.69.04,9.39-.02,14.08-.01,1.19.18,1.7,1.56,1.69q11.73-.1,23.46.01c1.36.01,1.61-.47,1.58-1.68-.07-3.19-.09-6.39-.01-9.58a7.414,7.414,0,0,0-1.17-4.23q-4.155-6.735-8.2-13.53a4.5,4.5,0,0,0-4.16-2.41c-3.84.01-7.69.03-11.53-.03-1.21-.02-1.55.45-1.54,1.61C64.75,40.71,64.72,45.41,64.72,50.1ZM35.31,55.77h0c-8.27.01-16.53.04-24.8-.03-1.48-.01-1.92.4-1.83,1.86.13,2.21.09,4.43.01,6.64-.04,1.18.31,1.6,1.53,1.56,2.8-.08,5.6-.03,8.4-.03,13.86,0,27.73-.03,41.59.04,1.57.01,2.05-.44,1.96-1.97a54.128,54.128,0,0,1-.01-6.24c.09-1.47-.39-1.88-1.85-1.87C51.97,55.81,43.64,55.77,35.31,55.77Zm-3.74,35.5a7.592,7.592,0,0,0,7.65-7.7,7.621,7.621,0,0,0-15.24.18A7.452,7.452,0,0,0,31.57,91.27Zm43.05.01a7.5,7.5,0,0,0,7.65-7.46,7.611,7.611,0,1,0-15.22-.08A7.514,7.514,0,0,0,74.62,91.28Z" transform="translate(-6 -6)"/>
    <path id="Path_344" data-name="Path 344" d="M38.46,6c1.17,1.05.79,2.56,1.08,3.86.2.89.44,1.42,1.36,1.56a2.085,2.085,0,0,1,.9.36c1.87,1.42,3.5,1.1,5.08-.52,1.1-1.13,2.19-.89,3.16.24.17.2.36.38.54.56,2.73,2.75,2.77,2.78.62,5.9a1.817,1.817,0,0,0-.12,2.44,1.58,1.58,0,0,1,.34.7c.43,2.49,2.09,3.26,4.4,3.27,1.28,0,1.86.78,1.76,2.06-.02.26,0,.52,0,.78.02,5.03.32,4.34-4.09,4.91-.75.1-1.22.35-1.39,1.1a2.5,2.5,0,0,1-.31.92c-1.45,1.97-1.22,3.74.51,5.43.99.97.84,1.96-.18,2.86-.24.22-.46.46-.7.68-3.05,2.87-2.37,3.24-5.94.46-.69-.53-1.32-.8-2.09-.21a2.153,2.153,0,0,1-.87.43c-2.52.41-3.28,2.07-3.27,4.38a1.592,1.592,0,0,1-1.87,1.74c-.46-.02-.91-.01-1.37,0-4.73.05-3.81.19-4.51-3.86-.15-.89-.41-1.44-1.31-1.65a3.453,3.453,0,0,1-1.28-.47c-1.76-1.36-3.22-.77-4.59.6-1.26,1.26-2.36,1.11-3.39-.28a6.422,6.422,0,0,0-.69-.69c-2.58-2.52-2.61-2.54-.5-5.48.64-.89.95-1.65.19-2.59a1.979,1.979,0,0,1-.43-.87c-.37-2.17-1.71-2.93-3.81-2.87a1.953,1.953,0,0,1-2.21-2.47c.03-.26,0-.52.01-.78.06-4.24-.54-3.95,3.87-4.52a1.681,1.681,0,0,0,1.67-1.33,4.367,4.367,0,0,1,.55-1.46c1.14-1.62.79-2.96-.57-4.25-1.33-1.26-1.47-2.52.17-3.7A6.525,6.525,0,0,0,20,12.4c2.39-2.45,2.44-2.51,5.08-.42,1.07.85,1.94,1.17,3.07.27a1.876,1.876,0,0,1,.88-.41c2.16-.23,2.61-1.75,2.7-3.54A3.054,3.054,0,0,1,32.59,6ZM23.54,37.1a8.52,8.52,0,0,1-1.94,2.94c-.48.63-.6,1.11.06,1.66.44.36.86,1.03,1.44.36,2.25-2.57,4.57-1.82,6.99-.3a6.6,6.6,0,0,0,2.04.66,1.931,1.931,0,0,1,1.67,1.87c.07.71.31,1.41.34,2.11.03.88.45,1.09,1.24,1.09.75,0,1.33-.15,1.27-1.03-.17-2.97,1.47-4.31,4.18-4.73a2.267,2.267,0,0,0,1.06-.47c1.9-1.64,3.58-1.3,5.21.43.54.57,1.17.96,1.97.11a1.181,1.181,0,0,0-.01-1.96,3.733,3.733,0,0,1-.42-5.51,2.67,2.67,0,0,0,.57-1.23c.31-2.69,1.87-3.8,4.48-3.7.94.04,1.19-.52,1.19-1.38,0-.79-.23-1.3-1.07-1.25-2.81.15-4.3-1.24-4.71-3.96a2.421,2.421,0,0,0-.47-1.06c-1.64-2.05-1.32-3.9.53-5.6.81-.75.44-1.27-.22-1.91-1-.97-1.58-.01-2.12.46-1.47,1.28-2.89,1.67-4.53.34a2.728,2.728,0,0,0-1.24-.55c-2.8-.49-4.63-1.8-4.43-4.97.06-.9-.64-.8-1.22-.8s-1.29-.15-1.24.77c.19,3.16-1.63,4.49-4.43,4.97a1.933,1.933,0,0,0-.89.39c-1.91,1.55-3.56.98-5.13-.57-.49-.48-.95-1.04-1.74-.2-.72.77-.91,1.39-.11,2.11,1.88,1.7,1.97,3.48.39,5.43a2.624,2.624,0,0,0-.57,1.23c-.38,2.83-1.91,4.21-4.81,4.05-.91-.05-.99.65-.99,1.35.01.63.08,1.2.92,1.18,2.92-.09,4.55,1.29,4.93,4.22a5.285,5.285,0,0,0,.76,1.57C22.84,35.87,23.19,36.49,23.54,37.1Z" transform="translate(-6 -6)"/>
    <path id="Path_345" data-name="Path 345" d="M77.67,53.58c-1.95,0-3.91-.02-5.86.01-1.42.02-2.17-.51-2.14-2.06.06-3.52.04-7.03,0-10.55-.02-1.33.53-1.95,1.85-1.9.07,0,.13.01.2.01,6.04-.12,6.03-.11,9.21,5.18,1.34,2.23,2.75,4.42,4.12,6.63.36.59.98,1.12.55,1.93-.46.86-1.3.75-2.06.76-1.95.03-3.91.01-5.86.01C77.67,53.59,77.67,53.59,77.67,53.58Zm-.5-2.63c1.04,0,2.09-.05,3.12.01,1.3.07,1.71-.21.89-1.47-1.36-2.06-2.74-4.13-3.9-6.31-1-1.89-2.65-1.49-4.08-1.29-1.55.22-.61,1.7-.81,2.6a7.864,7.864,0,0,0-.02,1.75C72.37,51,72.37,51,77.17,50.95Z" transform="translate(-6 -6)"/>
    <path id="Path_346" data-name="Path 346" d="M35.38,38.56A10.39,10.39,0,0,1,24.84,27.87a10.64,10.64,0,0,1,21.28.15A10.567,10.567,0,0,1,35.38,38.56Zm.31-18.49a7.91,7.91,0,0,0-8.23,7.83,8.021,8.021,0,0,0,16.04.23A7.92,7.92,0,0,0,35.69,20.07Z" transform="translate(-6 -6)"/>
  </g>
</svg>
