<svg id="Layer_6" xmlns="http://www.w3.org/2000/svg" width="90.48" height="90.478" viewBox="0 0 90.48 90.478">
  <g id="Group_53" data-name="Group 53" transform="translate(0 0)">
    <path id="Path_347" data-name="Path 347" d="M17.84,53.47a1.775,1.775,0,1,0-1.25-.52A1.789,1.789,0,0,0,17.84,53.47Z" transform="translate(-4.77 -4.773)"/>
    <path id="Path_348" data-name="Path 348" d="M94.32,29.02,78.17,20.09a1.766,1.766,0,1,0-1.71,3.09L91.7,31.6V91.7H83.93V36.22a1.767,1.767,0,0,0-1.77-1.77H17.84a1.767,1.767,0,0,0-1.77,1.77v8.41a1.77,1.77,0,0,0,3.54,0V37.98H80.39V91.7h-7.4V74.03a3.536,3.536,0,0,0-3.53-3.53H62.39V52.83a3.536,3.536,0,0,0-3.53-3.53H41.19a3.536,3.536,0,0,0-3.53,3.53V70.5H30.57a3.536,3.536,0,0,0-3.53,3.53V91.7H19.62V58.77a1.77,1.77,0,1,0-3.54,0V91.7H8.3V31.6L50,8.55l14.09,7.79a1.766,1.766,0,1,0,1.71-3.09L50.86,4.99a1.789,1.789,0,0,0-1.71,0L5.68,29.02a1.767,1.767,0,0,0-.91,1.55V93.48a1.767,1.767,0,0,0,1.77,1.77H93.48a1.767,1.767,0,0,0,1.77-1.77V30.56A1.782,1.782,0,0,0,94.32,29.02ZM58.86,74.03h3.53v3.53H58.86Zm-7.09-21.2v3.53H48.24V52.83Zm-10.58,0H44.7v5.3a1.767,1.767,0,0,0,1.77,1.77h7.07a1.767,1.767,0,0,0,1.77-1.77v-5.3h3.56V70.5H41.19Zm0,21.2v3.53H37.66V74.03ZM30.56,91.7V74.03h3.56v5.3a1.767,1.767,0,0,0,1.77,1.77h7.07a1.767,1.767,0,0,0,1.77-1.77v-5.3h3.51V91.7H30.56Zm21.23,0V74.03h3.53v5.3a1.767,1.767,0,0,0,1.77,1.77h7.07a1.767,1.767,0,0,0,1.77-1.77v-5.3h3.53V91.7H51.79Z" transform="translate(-4.77 -4.773)"/>
    <path id="Path_349" data-name="Path 349" d="M71.13,19.98a1.775,1.775,0,1,0-1.25-.52A1.789,1.789,0,0,0,71.13,19.98Z" transform="translate(-4.77 -4.773)"/>
    <path id="Path_350" data-name="Path 350" d="M42.58,22.79A7.42,7.42,0,1,0,50,15.37,7.43,7.43,0,0,0,42.58,22.79Zm11.31,0A3.89,3.89,0,1,1,50,18.9,3.894,3.894,0,0,1,53.89,22.79Z" transform="translate(-4.77 -4.773)"/>
  </g>
</svg>
